# xmcd
#
# Track frame offsets: 
#        150
#        13329
#        27877
#        40934
#        55276
#        75145
#        100307
#        118958
#        134402
#        156472
#        180318
#        208133
#        238164
#
# Disc length: 3512 seconds
#
# Revision: 0
# Processed by: cddbd v1.5PL3 Copyright (c) Steve Scherf et al.
# Submitted via: ExactAudioCopy v0.95a5
#
DISCID=b10db60d
DTITLE=Various Artist - Raw Trax 97
DYEAR=1997
DGENRE=Country
TTITLE0=Cartels, The - I Miss You
TTITLE1=Cartels, The - Jesus
TTITLE2=Butcher, Billy - Stateside Walking Shoes
TTITLE3=Butcher, Billy - Sally Suicide Slide
TTITLE4=Marauder - Brown Noser
TTITLE5=Marauder - Piece Of Me
TTITLE6=Super Chrome Deluxe - Why
TTITLE7=Day Camp - Carlos's Car
TTITLE8=Inches Of Flesh - Here and Now
TTITLE9=Inches Of Flesh - Vague
TTITLE10=Rev. Lance Flair - The Ballad Of William Bloat
TTITLE11=Rev. Lance Flair - The Hag
TTITLE12=Rev. Lance Flair - Charge Of The Light Brigade
EXTD=
EXTT0=
EXTT1=
EXTT2=
EXTT3=
EXTT4=
EXTT5=
EXTT6=
EXTT7=
EXTT8=
EXTT9=
EXTT10=
EXTT11=
EXTT12=
PLAYORDER=
